<svg xmlns="http://www.w3.org/2000/svg" xmlns:xlink="http://www.w3.org/1999/xlink" width="367.349" height="89.744" viewBox="0 0 367.349 89.744">
  <defs>
    <linearGradient id="linear-gradient" x1="0.056" y1="0.102" x2="0.904" y2="0.924" gradientUnits="objectBoundingBox">
      <stop offset="0" stop-color="#eb3dcb"/>
      <stop offset="0.056" stop-color="#e139cd"/>
      <stop offset="0.509" stop-color="#9b1bdf"/>
      <stop offset="0.835" stop-color="#6e09eb"/>
      <stop offset="1" stop-color="#5e02f0"/>
    </linearGradient>
  </defs>
  <g id="theta-edgecloud_black_horizontal" transform="translate(-30.577 -222.956)">
    <g id="Group_6" data-name="Group 6">
      <path id="Path_11" data-name="Path 11" d="M65.674,261.652V250.867a4.012,4.012,0,0,1,4.9-3.912A33.379,33.379,0,0,1,96.121,274.8a4.024,4.024,0,0,1-3.965,4.607H81.621a4.006,4.006,0,0,1-3.91-3.168,14.957,14.957,0,0,0-9.49-10.84A3.964,3.964,0,0,1,65.674,261.652Zm-9.841-14.721a33.4,33.4,0,0,0-25.154,25.12,4.022,4.022,0,0,0,3.9,4.933H45.375a4.077,4.077,0,0,0,3.8-2.733,14.975,14.975,0,0,1,8.855-8.833,4.066,4.066,0,0,0,2.736-3.789V250.836A4.022,4.022,0,0,0,55.833,246.931Zm2.2,46.474a14.974,14.974,0,0,1-8.846-8.789A4.077,4.077,0,0,0,45.4,281.9H34.6a4.02,4.02,0,0,0-3.9,4.939,33.4,33.4,0,0,0,25.14,25.053,4.022,4.022,0,0,0,4.928-3.9v-10.8A4.049,4.049,0,0,0,58.035,293.4Zm20.127-51.758a40.636,40.636,0,0,1,8.8,4.854,4.036,4.036,0,0,0,4.785.022,26.535,26.535,0,0,1,41.692,15.791,4.005,4.005,0,0,0,3.914,3.187H147.9a4.007,4.007,0,0,0,3.969-4.6A44.936,44.936,0,0,0,76.825,235.04,4,4,0,0,0,78.162,241.647Zm69.7,28.766H137.3a4.006,4.006,0,0,0-3.906,3.152,26.528,26.528,0,0,1-25.856,20.746H69.68a4.007,4.007,0,0,0-4.006,4.006V308.7A4.006,4.006,0,0,0,69.68,312.7h37.856a44.942,44.942,0,0,0,44.29-37.662A4.006,4.006,0,0,0,147.861,270.413Z" fill="url(#linear-gradient)"/>
    </g>
    <path id="Path_12" data-name="Path 12" d="M248.17,275.835v4.949h-5.741v-4.058c0-2.475-1.287-3.167-3.167-3.167s-3.168.692-3.168,3.167v19c0,2.475,1.287,3.168,3.168,3.168s3.167-.693,3.167-3.168v-5.146h-3.366v-4.85h9.107V296.62c0,5.345-3.465,7.325-8.71,7.325h-.4c-5.245,0-8.709-1.931-8.709-7.325V275.835c0-5.147,3.464-7.325,8.709-7.325h.4C244.705,268.51,248.17,270.688,248.17,275.835Zm117.512,19.894c0,2.475-1.088,3.168-2.969,3.168s-2.969-.693-2.969-3.168V268.907H354V296.62c0,5.394,3.366,7.325,8.612,7.325h.2c5.246,0,8.611-1.98,8.611-7.325V268.907h-5.741Zm32.244-19.5v19.993c0,5.246-3.465,7.325-8.71,7.325h-8.859V268.907h8.859C394.461,268.907,397.926,270.985,397.926,276.231Zm-5.741.891c0-2.474-1.286-3.167-3.167-3.167H386.1V298.5h2.92c1.881,0,3.167-.693,3.167-3.167Zm-78.754-8.215h-5.74v34.642h14.6V298.4h-8.858ZM221.3,276.231v19.993c0,5.246-3.464,7.325-8.71,7.325h-8.858V268.907h8.858C217.832,268.907,221.3,270.985,221.3,276.231Zm-5.74.891c0-2.474-1.287-3.167-3.168-3.167h-2.92V298.5h2.92c1.881,0,3.168-.693,3.168-3.167ZM263.535,288.5h7.918v-5.048h-7.918v-9.5h9.453v-5.048H257.794v34.642h15.342V298.5h-9.6Zm27.148-19.994h-.1c-5.246,0-8.71,2.178-8.71,7.325V296.62c0,5.394,3.464,7.325,8.71,7.325h.1c5.246,0,8.71-1.98,8.71-7.325v-7.175h-5.741v6.284c0,2.426-1.188,3.168-3.019,3.168s-3.018-.742-3.018-3.168v-19c0-2.425,1.187-3.167,3.018-3.167s3.019.742,3.019,3.167v5.444h5.741v-6.335C299.393,270.688,295.929,268.51,290.683,268.51Zm54.386,7.325V296.62c0,5.246-3.464,7.325-8.71,7.325h-.4c-5.246,0-8.71-2.079-8.71-7.325V275.835c0-5.295,3.464-7.325,8.71-7.325h.4C341.605,268.51,345.069,270.589,345.069,275.835Zm-5.741.891c0-2.475-1.286-3.167-3.167-3.167s-3.167.692-3.167,3.167v19c0,2.475,1.287,3.168,3.167,3.168s3.167-.693,3.167-3.168ZM184.75,288.5h7.918v-5.048H179.009v20.093h15.342V298.5h-9.6Zm9.452-19.6H179.009v5.048H194.2Zm7.159-34.793v9.265h4.22v-9.265h3.681v22.211h-3.681v-9.646h-4.22v9.646h-3.68V234.114Zm19.006,22.211V234.114h9.741v3.237h-6.061v6.092h5.077v3.236h-5.077v6.41H230.2v3.236Zm30.206-18.974h-3.712v18.974H243.18V237.351h-3.712v-3.237h11.1Zm15.515,14.024h-4.061l-.793,4.95H257.68l4.125-22.211h4.632l4.189,22.211h-3.744Zm-.476-3.046-1.554-9.868-1.555,9.868Zm-86.568-14.215v3.237h11.1v-3.237Zm0,9.24h3.724v12.971h3.681V243.354h3.7v-3.236h-11.1Z" fill="#2c2c40"/>
  </g>
</svg>
